<?xml version="1.0" encoding="utf-8"?>
<!-- Generator: Adobe Illustrator 19.1.0, SVG Export Plug-In . SVG Version: 6.00 Build 0)  -->
<svg version="1.1" id="Layer_1" xmlns="http://www.w3.org/2000/svg" xmlns:xlink="http://www.w3.org/1999/xlink" x="0px" y="0px"
	 viewBox="0 0 960 960" style="enable-background:new 0 0 960 960;" xml:space="preserve">
<style type="text/css">
	.st0{fill:#1D73D8;}
</style>
<path class="st0" d="M658.5,307.9c-15.9-21.9-35.6-40.9-58.1-56c-4-2.7-8-5.2-12.2-7.6c-69.6-40.6-155.3-41.6-223.7-2.5
	c-75.9,43.4-116.8,128.8-102,212.6c13.9,78.6,77.2,141.2,153.7,152.2c52.2,7.5,105.1-9.4,141.4-45.2c33-32.6,49.7-80.3,45.5-126.4
	c-3.4-41.4-26.2-73.3-55.2-94.8c-35.3-26.2-83.1-32.2-121.8-15.4c-35.2,15.3-60.5,48.7-64.4,85c-2.6,24.3,5,50,20.3,68.7
	c13.4,16.4,32,26.5,52.2,28.5c24.4,2.3,50.1-9.9,62.5-29.7c10.2-16.4,10.1-35.6-0.4-52.7c-6.6-10.8-20.7-14.1-31.4-7.5
	c-4.8,3-8.4,7.7-10,13.1c-0.8,2.6-1.2,5.6-0.9,8.3c0.4,3.6,1.9,6.9,1.9,10.5c0.1,4.4-2.1,8.6-6.2,10.4c-3.5,1.6-7.5,2.5-11.2,2.2
	c-8.2-0.8-15.3-4.8-21.1-11.9c-7.6-9.3-11.5-22.7-10.2-34.9c2.2-20.2,16.8-39.1,37.2-48c24-10.4,53.9-6.4,76.3,10.2
	c18.9,14,34,33.8,36.2,62.3c2.7,35.5-8.5,66.5-31.9,89.7c-26.2,25.8-64.5,38-102.6,32.5c-57.2-8.2-104.5-55.5-115-114.9
	c-11.3-63.8,21.5-131.7,79.7-164.9c53.5-30.5,123.3-29.6,178,2.3c23.2,13.6,43.3,32.2,58.7,54.3c34.1,48.9,36.1,102.4,36.1,159.6
	c0,14.6,0,35,0,49.6v38.2h0c0,0,0,0,0,0.1c0,12.6,10.2,22.9,22.9,22.9c12.6,0,22.9-10.2,22.9-22.9c0,0,0,0,0-0.1h0v-38.2
	C705.7,465.3,709.6,378,658.5,307.9"/>
<path d="M316.3,713.3l-12.5-29.7l-12.5,29.7H316.3z M260.6,738.3l31.3-70.8c2.2-4.9,6.2-7.8,11.6-7.8h1.2c5.4,0,9.2,3,11.4,7.8
	l31.3,70.8c0.6,1.4,1,2.7,1,4c0,5.3-4.1,9.5-9.4,9.5c-4.6,0-7.7-2.7-9.5-6.8l-6-14.1H284l-6.3,14.8c-1.7,3.9-5,6.2-9.1,6.2
	c-5.1,0-9.1-4.1-9.1-9.2C259.5,741.1,260,739.7,260.6,738.3"/>
<path d="M361.6,670.2c0-5.5,4.4-9.9,9.9-9.9c5.5,0,9.9,4.4,9.9,9.9v30.2l36.5-36.2c2.4-2.4,4.9-3.9,8.3-3.9c5.5,0,9.1,4.2,9.1,9.1
	c0,3.1-1.4,5.4-3.6,7.4l-25.3,23.6l27.6,34.7c1.5,1.9,2.7,4,2.7,6.9c0,5.5-4.2,9.6-10,9.6c-3.9,0-6.2-1.9-8.3-4.8l-25.7-33.7
	l-11.3,10.5v18c0,5.5-4.4,9.9-9.9,9.9c-5.5,0-9.9-4.4-9.9-9.9V670.2z"/>
<path d="M450.6,741.1V671c0-5.5,4.4-9.9,9.9-9.9h49.8c4.9,0,8.9,4,8.9,8.9c0,4.9-4,8.7-8.9,8.7h-40.1v18.2h34.3c4.9,0,8.9,4,8.9,8.9
	c0,4.9-4,8.7-8.9,8.7h-34.3v18.9H511c4.9,0,8.9,4,8.9,8.9c0,4.9-4,8.7-8.9,8.7h-50.5C455,751,450.6,746.6,450.6,741.1"/>
<path d="M532.4,741.5c-2.2-1.5-3.7-4.4-3.7-7.5c0-5.1,4.1-9.1,9.2-9.1c2.6,0,4.4,0.9,5.7,1.8c6.8,5,14.3,8.1,23,8.1
	c8.1,0,13-3.2,13-8.5v-0.3c0-5-3.1-7.6-18.1-11.4c-18.1-4.6-29.8-9.6-29.8-27.5v-0.3c0-16.3,13.1-27.1,31.5-27.1
	c10.9,0,20.4,2.8,28.5,8c2.2,1.3,4.4,4,4.4,7.8c0,5.1-4.1,9.1-9.2,9.1c-1.9,0-3.5-0.5-5-1.4c-6.5-3.9-12.7-6-18.9-6
	c-7.6,0-11.6,3.5-11.6,7.8v0.3c0,5.9,3.9,7.8,19.4,11.8c18.2,4.8,28.5,11.3,28.5,27v0.3c0,17.9-13.6,27.9-33,27.9
	C554.4,752.3,542.4,748.7,532.4,741.5"/>
<path d="M684.9,706.3V706c0-15.4-11.3-28.3-27.2-28.3c-15.9,0-27,12.6-27,28v0.3c0,15.4,11.3,28.3,27.2,28.3
	C673.8,734.3,684.9,721.7,684.9,706.3 M610,706.3V706c0-25.6,20.2-46.5,47.9-46.5s47.7,20.7,47.7,46.2v0.3
	c0,25.6-20.2,46.5-47.9,46.5C629.9,752.5,610,731.8,610,706.3"/>
</svg>
