<?xml version="1.0" encoding="utf-8"?>
<!-- Generator: Adobe Illustrator 19.1.0, SVG Export Plug-In . SVG Version: 6.00 Build 0)  -->
<svg version="1.1" id="Layer_1" xmlns="http://www.w3.org/2000/svg" xmlns:xlink="http://www.w3.org/1999/xlink" x="0px" y="0px"
	 viewBox="0 0 960 376.6" style="enable-background:new 0 0 960 376.6;" xml:space="preserve">
<style type="text/css">
	.st0{fill:#1D73D8;}
</style>
<path class="st0" d="M294.1,144.9c-6.8-9.3-15.1-17.3-24.7-23.7c-1.7-1.1-3.4-2.2-5.2-3.2c-29.5-17.2-65.9-17.7-94.9-1.1
	c-32.2,18.4-49.6,54.6-43.3,90.2c5.9,33.4,32.7,59.9,65.2,64.6c22.1,3.2,44.6-4,60-19.2c14-13.8,21.1-34.1,19.3-53.6
	c-1.5-17.6-11.1-31.1-23.4-40.2c-15-11.1-35.2-13.7-51.7-6.5c-15,6.5-25.7,20.7-27.3,36.1c-1.1,10.3,2.1,21.2,8.6,29.1
	c5.7,7,13.6,11.3,22.2,12.1c10.4,1,21.3-4.2,26.5-12.6c4.3-7,4.3-15.1-0.2-22.3c-2.8-4.6-8.8-6-13.3-3.2c-2,1.3-3.6,3.3-4.2,5.6
	c-0.3,1.1-0.5,2.4-0.4,3.5c0.2,1.5,0.8,2.9,0.8,4.5c0,1.8-0.9,3.6-2.6,4.4c-1.5,0.7-3.2,1.1-4.8,0.9c-3.5-0.3-6.5-2-9-5
	c-3.2-4-4.9-9.6-4.3-14.8c0.9-8.6,7.1-16.6,15.8-20.4c10.2-4.4,22.9-2.7,32.4,4.3c8,5.9,14.4,14.4,15.3,26.4
	c1.1,15.1-3.6,28.2-13.5,38c-11.1,11-27.4,16.1-43.5,13.8c-24.3-3.5-44.3-23.5-48.8-48.8c-4.8-27.1,9.1-55.9,33.8-70
	c22.7-13,52.3-12.6,75.5,1c9.9,5.8,18.4,13.7,24.9,23c14.5,20.7,15.3,43.4,15.3,67.7c0,6.2,0,14.8,0,21v16.2h0c0,0,0,0,0,0
	c0,5.4,4.3,9.7,9.7,9.7c5.4,0,9.7-4.3,9.7-9.7c0,0,0,0,0,0v-16.2C314.1,211.7,315.7,174.7,294.1,144.9"/>
<path d="M426,196.3l-13.2-31.5l-13.2,31.5H426z M367,222.8l33.2-75.1c2.3-5.2,6.5-8.3,12.3-8.3h1.2c5.7,0,9.8,3.1,12.1,8.3
	l33.2,75.1c0.7,1.5,1.1,2.9,1.1,4.2c0,5.6-4.4,10.1-9.9,10.1c-4.9,0-8.2-2.9-10.1-7.2l-6.4-15h-42l-6.7,15.7
	c-1.8,4.1-5.3,6.5-9.7,6.5c-5.4,0-9.7-4.4-9.7-9.8C365.8,225.8,366.4,224.3,367,222.8"/>
<path d="M474.1,150.5c0-5.9,4.6-10.5,10.5-10.5c5.9,0,10.5,4.6,10.5,10.5v32l38.7-38.4c2.6-2.6,5.2-4.1,8.9-4.1
	c5.9,0,9.7,4.5,9.7,9.7c0,3.3-1.5,5.7-3.8,7.9l-26.8,25.1l29.3,36.8c1.6,2,2.9,4.2,2.9,7.4c0,5.9-4.5,10.2-10.6,10.2
	c-4.1,0-6.5-2-8.9-5l-27.3-35.7l-12,11.2v19.1c0,5.9-4.6,10.5-10.5,10.5c-5.9,0-10.5-4.6-10.5-10.5V150.5z"/>
<path d="M568.5,225.8v-74.4c0-5.9,4.6-10.5,10.5-10.5h52.9c5.2,0,9.4,4.2,9.4,9.4c0,5.2-4.2,9.3-9.4,9.3h-42.5v19.3h36.4
	c5.2,0,9.4,4.2,9.4,9.4c0,5.2-4.2,9.3-9.4,9.3h-36.4v20h43.2c5.2,0,9.4,4.2,9.4,9.4c0,5.2-4.2,9.3-9.4,9.3H579
	C573.2,236.3,568.5,231.6,568.5,225.8"/>
<path d="M655.3,226.2c-2.3-1.6-4-4.6-4-7.9c0-5.4,4.4-9.7,9.8-9.7c2.7,0,4.6,1,6,1.9c7.2,5.3,15.1,8.6,24.4,8.6
	c8.6,0,13.8-3.4,13.8-9v-0.3c0-5.3-3.3-8-19.2-12.1c-19.2-4.9-31.6-10.2-31.6-29.2v-0.3c0-17.3,13.9-28.8,33.4-28.8
	c11.6,0,21.7,3,30.2,8.4c2.3,1.4,4.6,4.2,4.6,8.3c0,5.4-4.4,9.7-9.8,9.7c-2,0-3.7-0.5-5.3-1.5c-6.9-4.1-13.5-6.4-20-6.4
	c-8,0-12.3,3.7-12.3,8.3v0.3c0,6.3,4.1,8.3,20.6,12.5c19.3,5,30.2,12,30.2,28.6v0.3c0,18.9-14.4,29.6-35,29.6
	C678.6,237.6,666,233.8,655.3,226.2"/>
<path d="M817.1,188.8v-0.3c0-16.3-12-30-28.9-30c-16.9,0-28.6,13.4-28.6,29.7v0.3c0,16.3,12,30,28.9,30
	C805.4,218.5,817.1,205.2,817.1,188.8 M737.6,188.8v-0.3c0-27.1,21.4-49.3,50.8-49.3c29.4,0,50.6,21.9,50.6,49.1v0.3
	c0,27.1-21.4,49.3-50.8,49.3C758.8,237.9,737.6,216,737.6,188.8"/>
</svg>
