<?xml version="1.0" encoding="UTF-8" standalone="no"?>
<svg
   xmlns:dc="http://purl.org/dc/elements/1.1/"
   xmlns:cc="http://creativecommons.org/ns#"
   xmlns:rdf="http://www.w3.org/1999/02/22-rdf-syntax-ns#"
   xmlns:svg="http://www.w3.org/2000/svg"
   xmlns="http://www.w3.org/2000/svg"
   viewBox="0 0 1508 180"
   height="180"
   width="1508"    
   xml:space="preserve"
   id="svg2"
   version="1.1"><g transform="translate(-134,-127)"><metadata
     id="metadata8"><rdf:RDF><cc:Work
         rdf:about=""><dc:format>image/svg+xml</dc:format><dc:type
           rdf:resource="http://purl.org/dc/dcmitype/StillImage" /></cc:Work></rdf:RDF></metadata><defs
     id="defs6"><clipPath
       id="clipPath20"
       clipPathUnits="userSpaceOnUse"><path
         id="path18"
         d="M 0,325.6 H 1332 V 0 H 0 Z" /></clipPath></defs><g
     transform="matrix(1.3333333,0,0,-1.3333333,0,434.13333)"
     id="g10"><path
       id="path12"
       style="fill:#004b87;fill-opacity:1;fill-rule:nonzero;stroke:none"
       d="m 1090.274,228.8 h 1.601 v -132 h -1.601 z" /><g
       id="g14"><g
         clip-path="url(#clipPath20)"
         id="g16"><g
           transform="translate(1219.2744,200.9998)"
           id="g22"><path
             id="path24"
             style="fill:#004b87;fill-opacity:1;fill-rule:nonzero;stroke:none"
             d="m 0,0 c -3.5,4.8 -7.8,8.9 -12.699,12.2 -0.901,0.6 -1.7,1.1 -2.7,1.7 C -30.6,22.8 -49.3,23 -64.199,14.4 -80.8,4.9 -89.699,-13.7 -86.5,-32 c 3,-17.2 16.801,-30.8 33.5,-33.2 11.4,-1.6 22.9,2.1 30.9,9.9 7.201,7.1 10.8,17.5 9.901,27.6 -0.7,9 -5.7,16 -12,20.7 -7.7,5.7 -18.101,7 -26.601,3.4 -7.699,-3.3 -13.199,-10.6 -14.099,-18.5 -0.6,-5.3 1.099,-10.9 4.4,-15 2.899,-3.6 7,-5.799 11.399,-6.2 5.3,-0.5 10.901,2.2 13.601,6.5 2.199,3.6 2.199,7.8 -0.101,11.5 -1.399,2.4 -4.5,3.1 -6.899,1.6 -1,-0.7 -1.801,-1.7 -2.2,-2.9 -0.2,-0.6 -0.3,-1.2 -0.2,-1.8 0.099,-0.8 0.4,-1.5 0.4,-2.3 0,-1 -0.5,-1.9 -1.4,-2.3 -0.8,-0.3 -1.6,-0.5 -2.401,-0.5 -1.8,0.2 -3.3,1 -4.599,2.6 -1.701,2 -2.5,5 -2.201,7.6 0.5,4.4 3.701,8.5 8.101,10.5 5.199,2.3 11.8,1.4 16.699,-2.2 4.101,-3.1 7.401,-7.4 7.901,-13.6 0.599,-7.7 -1.901,-14.5 -7,-19.6 -5.701,-5.6 -14.1,-8.3 -22.401,-7.1 -12.5,1.8 -22.8,12.1 -25.099,25.1 -2.5,13.9 4.7,28.7 17.4,36 11.699,6.7 26.899,6.5 38.8,-0.5 5.099,-3 9.4,-7 12.8,-11.8 7.4,-10.7 7.9,-22.3 7.9,-34.8 v -10.8 -8.299 c 0,-2.701 2.2,-5 5,-5 2.7,0 5,2.199 5,5 V -52.1 C 10.301,-34.4 11.101,-15.3 0,0" /></g><g
           transform="translate(1132.4746,106.9998)"
           id="g26"><path
             id="path28"
             style="fill:#004b87;fill-opacity:1;fill-rule:nonzero;stroke:none"
             d="m 0,0 6.801,15.5 c 0.5,1.101 1.399,1.7 2.5,1.7 h 0.3 c 1.2,0 2,-0.7 2.5,-1.7 L 18.9,0 C 19,-0.3 19.101,-0.6 19.101,-0.899 19.101,-2.1 18.2,-3 17,-3 c -1,0 -1.699,0.601 -2.1,1.5 L 13.601,1.601 H 5 L 3.601,-1.6 C 3.2,-2.5 2.5,-3 1.601,-3 c -1.101,0 -2,0.9 -2,2 C -0.3,-0.6 -0.2,-0.3 0,0 M 12.101,5.5 9.4,12 6.7,5.5 Z" /></g><g
           transform="translate(1154.4746,121.9002)"
           id="g30"><path
             id="path32"
             style="fill:#004b87;fill-opacity:1;fill-rule:nonzero;stroke:none"
             d="m 0,0 c 0,1.2 1,2.2 2.2,2.2 1.2,0 2.2,-1 2.2,-2.2 v -6.601 l 8,7.901 c 0.5,0.5 1.1,0.9 1.8,0.9 1.2,0 2,-0.9 2,-2 0,-0.7 -0.3,-1.2 -0.8,-1.6 l -5.5,-5.201 6,-7.599 c 0.3,-0.401 0.6,-0.901 0.6,-1.5 0,-1.2 -0.899,-2.1 -2.2,-2.1 -0.9,0 -1.4,0.4 -1.8,1 l -5.6,7.4 -2.5,-2.3 v -3.901 c 0,-1.199 -1,-2.199 -2.2,-2.199 -1.2,0 -2.2,1 -2.2,2.199 z" /></g><g
           transform="translate(1173.875,106.4002)"
           id="g34"><path
             id="path36"
             style="fill:#004b87;fill-opacity:1;fill-rule:nonzero;stroke:none"
             d="m 0,0 v 15.3 c 0,1.2 1,2.2 2.2,2.2 h 10.9 c 1.1,0 1.9,-0.9 1.9,-1.9 0,-1 -0.9,-1.9 -1.9,-1.9 H 4.3 v -4 h 7.5 c 1.099,0 1.9,-0.9 1.9,-1.9 0,-1 -0.9,-1.901 -1.9,-1.901 H 4.3 V 1.8 h 8.9 c 1.1,0 1.9,-0.901 1.9,-1.901 C 15.1,-1.2 14.2,-2 13.2,-2 H 2.2 C 1,-2.101 0,-1.2 0,0" /></g><g
           transform="translate(1191.7744,106.2997)"
           id="g38"><path
             id="path40"
             style="fill:#004b87;fill-opacity:1;fill-rule:nonzero;stroke:none"
             d="m 0,0 c -0.5,0.301 -0.8,1 -0.8,1.601 0,1.099 0.901,2 2,2 0.601,0 1,-0.201 1.2,-0.401 1.5,-1.099 3.1,-1.8 5,-1.8 1.8,0 2.8,0.701 2.8,1.901 V 3.4 c 0,1.1 -0.7,1.701 -3.899,2.5 -3.901,1 -6.5,2.1 -6.5,6 V 12 c 0,3.601 2.899,5.9 6.899,5.9 2.401,0 4.5,-0.599 6.2,-1.7 0.5,-0.3 1,-0.899 1,-1.7 0,-1.1 -0.9,-2 -2,-2 -0.4,0 -0.799,0.101 -1.099,0.301 C 9.4,13.7 8,14.101 6.7,14.101 5,14.101 4.2,13.301 4.2,12.4 V 12.301 C 4.2,11 5.101,10.601 8.4,9.7 c 4,-1 6.201,-2.5 6.201,-5.899 V 3.7 c 0,-3.899 -3,-6.099 -7.201,-6.099 C 4.801,-2.3 2.2,-1.5 0,0" /></g><g
           transform="translate(1208.6748,113.9998)"
           id="g42"><path
             id="path44"
             style="fill:#004b87;fill-opacity:1;fill-rule:nonzero;stroke:none"
             d="m 0,0 v 0 c 0,5.7 4.4,10.2 10.5,10.2 6,0 10.4,-4.5 10.4,-10.099 V 0 C 20.9,-5.6 16.5,-10.1 10.4,-10.1 4.4,-10.1 0,-5.5 0,0 m 16.4,0 v 0 c 0,3.4 -2.5,6.2 -5.9,6.2 C 7,6.2 4.6,3.5 4.6,0.101 V 0 c 0,-3.399 2.5,-6.2 5.9,-6.2 3.4,0.1 5.9,2.9 5.9,6.2" /></g><g
           transform="translate(395.2373,188.1126)"
           id="g46"><path
             id="path48"
             style="fill:#004b87;fill-opacity:1;fill-rule:nonzero;stroke:none"
             d="m 0,0 c 5.208,0 8.521,2.723 8.521,6.923 v 0.119 c 0,4.438 -3.195,6.865 -8.58,6.865 H -10.651 V 0 Z m -17.93,16.865 c 0,2.071 1.598,3.67 3.669,3.67 H 0.533 c 5.208,0 9.291,-1.539 11.954,-4.143 2.189,-2.249 3.431,-5.326 3.431,-8.935 V 7.338 C 15.918,0.71 12.072,-3.314 6.51,-5.029 l 7.929,-10.002 c 0.71,-0.887 1.184,-1.656 1.184,-2.781 0,-2.011 -1.717,-3.373 -3.492,-3.373 -1.656,0 -2.722,0.769 -3.55,1.893 l -10.06,12.841 h -9.172 v -11.124 c 0,-2.012 -1.598,-3.61 -3.61,-3.61 -2.071,0 -3.669,1.598 -3.669,3.61 z" /></g><g
           transform="translate(421.2695,170.8924)"
           id="g50"><path
             id="path52"
             style="fill:#004b87;fill-opacity:1;fill-rule:nonzero;stroke:none"
             d="m 0,0 v 34.085 c 0,2.071 1.598,3.67 3.669,3.67 h 24.085 c 1.774,0 3.254,-1.48 3.254,-3.255 0,-1.835 -1.48,-3.255 -3.254,-3.255 H 7.279 V 20.475 H 25.09 c 1.776,0 3.256,-1.479 3.256,-3.314 0,-1.775 -1.48,-3.195 -3.256,-3.195 H 7.279 V 2.84 H 28.05 c 1.774,0 3.254,-1.479 3.254,-3.254 0,-1.835 -1.48,-3.254 -3.254,-3.254 H 3.669 C 1.598,-3.668 0,-2.071 0,0" /></g><g
           transform="translate(462.0962,205.3324)"
           id="g54"><path
             id="path56"
             style="fill:#004b87;fill-opacity:1;fill-rule:nonzero;stroke:none"
             d="M 0,0 C 0,2.012 1.598,3.61 3.67,3.61 5.681,3.61 7.278,2.012 7.278,0 V -13.906 H 27.044 V 0 c 0,2.012 1.598,3.61 3.609,3.61 2.072,0 3.67,-1.598 3.67,-3.61 v -34.795 c 0,-2.012 -1.598,-3.61 -3.67,-3.61 -2.011,0 -3.609,1.598 -3.609,3.61 v 14.144 H 7.278 v -14.144 c 0,-2.012 -1.597,-3.61 -3.608,-3.61 -2.072,0 -3.67,1.598 -3.67,3.61 z" /></g><g
           transform="translate(532.9839,183.6742)"
           id="g58"><path
             id="path60"
             style="fill:#004b87;fill-opacity:1;fill-rule:nonzero;stroke:none"
             d="M 0,0 -7.279,16.747 -14.557,0 Z m -27.103,-11.716 15.386,34.321 c 0.829,1.835 2.307,2.959 4.38,2.959 h 0.354 c 2.072,0 3.492,-1.124 4.321,-2.959 l 15.386,-34.321 c 0.296,-0.533 0.414,-1.066 0.414,-1.539 0,-1.953 -1.48,-3.492 -3.433,-3.492 -1.715,0 -2.899,1.007 -3.55,2.545 L 2.781,-6.45 h -20.12 l -3.491,-7.988 c -0.592,-1.48 -1.835,-2.309 -3.372,-2.309 -1.893,0 -3.373,1.479 -3.373,3.373 0,0.534 0.176,1.065 0.472,1.658" /></g><g
           transform="translate(574.4023,173.6742)"
           id="g62"><path
             id="path64"
             style="fill:#004b87;fill-opacity:1;fill-rule:nonzero;stroke:none"
             d="m 0,0 c 4.971,0 7.988,1.952 7.988,5.681 v 0.118 c 0,3.492 -2.781,5.563 -8.521,5.563 h -11.538 l 0,-11.362 z m -2.131,17.516 c 4.675,0 7.812,1.834 7.812,5.621 v 0.119 c 0,3.255 -2.603,5.267 -7.279,5.267 H -12.071 V 17.516 Z m -17.101,13.788 c 0,2.071 1.597,3.669 3.667,3.669 h 14.914 c 4.734,0 8.463,-1.303 10.829,-3.669 1.835,-1.834 2.781,-4.084 2.781,-6.865 v -0.118 c 0,-4.971 -2.84,-7.633 -5.918,-9.231 4.854,-1.657 8.226,-4.439 8.226,-10.06 V 4.911 C 15.267,-2.486 9.172,-6.45 -0.059,-6.45 h -15.506 c -2.07,0 -3.667,1.597 -3.667,3.668 z" /></g><g
           transform="translate(599.4839,205.3324)"
           id="g66"><path
             id="path68"
             style="fill:#004b87;fill-opacity:1;fill-rule:nonzero;stroke:none"
             d="M 0,0 C 0,2.012 1.598,3.61 3.669,3.61 5.681,3.61 7.278,2.012 7.278,0 v -34.795 c 0,-2.012 -1.597,-3.61 -3.609,-3.61 -2.071,0 -3.669,1.598 -3.669,3.61 z" /></g><g
           transform="translate(619.0103,205.3324)"
           id="g70"><path
             id="path72"
             style="fill:#004b87;fill-opacity:1;fill-rule:nonzero;stroke:none"
             d="M 0,0 C 0,2.012 1.598,3.61 3.667,3.61 5.681,3.61 7.278,2.012 7.278,0 v -31.481 h 18.758 c 1.835,0 3.315,-1.479 3.315,-3.314 0,-1.834 -1.48,-3.313 -3.315,-3.313 H 3.667 C 1.598,-38.108 0,-36.511 0,-34.44 Z" /></g><g
           transform="translate(657.2334,205.3324)"
           id="g74"><path
             id="path76"
             style="fill:#004b87;fill-opacity:1;fill-rule:nonzero;stroke:none"
             d="M 0,0 C 0,2.012 1.598,3.61 3.67,3.61 5.681,3.61 7.278,2.012 7.278,0 v -34.795 c 0,-2.012 -1.597,-3.61 -3.608,-3.61 -2.072,0 -3.67,1.598 -3.67,3.61 z" /></g><g
           transform="translate(686.9355,201.9012)"
           id="g78"><path
             id="path80"
             style="fill:#004b87;fill-opacity:1;fill-rule:nonzero;stroke:none"
             d="m 0,0 h -10.061 c -1.893,0 -3.371,1.538 -3.371,3.373 0,1.835 1.478,3.373 3.371,3.373 h 27.518 c 1.835,0 3.315,-1.538 3.315,-3.373 C 20.772,1.538 19.292,0 17.457,0 H 7.338 v -31.364 c 0,-2.012 -1.656,-3.61 -3.667,-3.61 -2.014,0 -3.671,1.598 -3.671,3.61 z" /></g><g
           transform="translate(736.2861,183.6742)"
           id="g82"><path
             id="path84"
             style="fill:#004b87;fill-opacity:1;fill-rule:nonzero;stroke:none"
             d="M 0,0 -7.278,16.747 -14.557,0 Z m -27.103,-11.716 15.386,34.321 c 0.83,1.835 2.308,2.959 4.38,2.959 h 0.355 c 2.072,0 3.491,-1.124 4.32,-2.959 l 15.387,-34.321 c 0.294,-0.533 0.413,-1.066 0.413,-1.539 0,-1.953 -1.48,-3.492 -3.432,-3.492 -1.716,0 -2.899,1.007 -3.551,2.545 L 2.782,-6.45 h -20.121 l -3.491,-7.988 c -0.592,-1.48 -1.834,-2.309 -3.371,-2.309 -1.894,0 -3.374,1.479 -3.374,3.373 0,0.534 0.177,1.065 0.472,1.658" /></g><g
           transform="translate(778.6494,220.0682)"
           id="g86"><path
             id="path88"
             style="fill:#004b87;fill-opacity:1;fill-rule:nonzero;stroke:none"
             d="m 0,0 c 1.598,1.301 2.724,1.597 4.38,1.597 0.946,0 1.598,-0.414 1.598,-1.183 0,-0.473 -0.356,-0.947 -0.71,-1.42 L 1.363,-5.918 C 0.533,-6.983 -0.413,-7.633 -2.069,-7.633 H -4.2 c -1.656,0 -2.545,0.65 -3.433,1.715 l -3.905,4.912 c -0.355,0.473 -0.709,0.947 -0.709,1.42 0,0.769 0.768,1.183 1.715,1.183 1.656,0 2.841,-0.296 4.379,-1.597 l 3.078,-2.663 z m -23.788,-32.251 v 0.118 c 0,11.776 8.817,21.422 21.363,21.422 6.391,0 10.592,-1.894 14.202,-4.676 0.769,-0.591 1.42,-1.597 1.42,-2.899 0,-2.012 -1.597,-3.55 -3.609,-3.55 -1.005,0 -1.717,0.355 -2.19,0.71 -2.84,2.308 -5.918,3.729 -9.881,3.729 -7.871,0 -13.671,-6.511 -13.671,-14.618 v -0.118 c 0,-8.107 5.739,-14.676 13.671,-14.676 4.377,0 7.337,1.42 10.354,3.965 0.533,0.473 1.302,0.829 2.19,0.829 1.835,0 3.432,-1.539 3.432,-3.374 0,-1.124 -0.533,-2.011 -1.184,-2.603 -3.905,-3.432 -8.343,-5.563 -15.03,-5.563 -12.071,0 -21.067,9.409 -21.067,21.304" /></g><g
           transform="translate(801.5459,205.2152)"
           id="g90"><path
             id="path92"
             style="fill:#004b87;fill-opacity:1;fill-rule:nonzero;stroke:none"
             d="m 0,0 c 0,2.011 1.598,3.668 3.667,3.668 h 0.77 C 6.214,3.668 7.22,2.78 8.226,1.539 L 28.937,-25.268 V 0.177 c 0,1.952 1.598,3.55 3.55,3.55 2.012,0 3.61,-1.598 3.61,-3.55 v -34.796 c 0,-2.011 -1.539,-3.609 -3.551,-3.609 H 32.25 c -1.715,0 -2.781,0.887 -3.787,2.189 L 7.161,-8.463 v -26.273 c 0,-1.954 -1.599,-3.552 -3.553,-3.552 -2.01,0 -3.608,1.598 -3.608,3.552 z" /></g><g
           transform="translate(851.6035,213.0257)"
           id="g94"><path
             id="path96"
             style="fill:#004b87;fill-opacity:1;fill-rule:nonzero;stroke:none"
             d="m 0,0 c 0,0.415 0.235,0.947 0.472,1.303 l 3.374,5.206 c 0.65,1.065 1.597,1.716 2.841,1.716 1.893,0 4.259,-1.183 4.259,-2.307 0,-0.651 -0.414,-1.243 -1.006,-1.775 L 5.977,0.356 C 4.556,-0.947 3.433,-1.243 1.773,-1.243 0.769,-1.243 0,-0.77 0,0 m -1.718,-7.693 c 0,2.012 1.598,3.61 3.67,3.61 2.011,0 3.609,-1.598 3.609,-3.61 v -34.795 c 0,-2.012 -1.598,-3.61 -3.609,-3.61 -2.072,0 -3.67,1.598 -3.67,3.61 z" /></g><g
           transform="translate(377.8418,145.2088)"
           id="g98"><path
             id="path100"
             style="fill:#004b87;fill-opacity:1;fill-rule:nonzero;stroke:none"
             d="m 0,0 c 0,2.013 1.598,3.67 3.669,3.67 h 0.769 c 1.775,0 2.781,-0.889 3.788,-2.131 L 28.937,-25.269 V 0.179 c 0,1.952 1.597,3.55 3.551,3.55 2.011,0 3.61,-1.598 3.61,-3.55 v -34.795 c 0,-2.014 -1.539,-3.612 -3.552,-3.612 H 32.25 c -1.716,0 -2.78,0.888 -3.787,2.19 L 7.16,-8.461 v -26.275 c 0,-1.952 -1.598,-3.55 -3.55,-3.55 -2.012,0 -3.61,1.598 -3.61,3.55 z" /></g><g
           transform="translate(425.7676,110.8885)"
           id="g102"><path
             id="path104"
             style="fill:#004b87;fill-opacity:1;fill-rule:nonzero;stroke:none"
             d="m 0,0 v 34.085 c 0,2.07 1.598,3.668 3.668,3.668 h 24.085 c 1.775,0 3.255,-1.479 3.255,-3.254 0,-1.835 -1.48,-3.255 -3.255,-3.255 H 7.278 V 20.473 h 17.811 c 1.777,0 3.257,-1.478 3.257,-3.313 0,-1.776 -1.48,-3.195 -3.257,-3.195 H 7.278 V 2.84 H 28.05 c 1.774,0 3.254,-1.48 3.254,-3.256 0,-1.835 -1.48,-3.254 -3.254,-3.254 H 3.668 C 1.598,-3.67 0,-2.072 0,0" /></g><g
           transform="translate(466.5942,145.2088)"
           id="g106"><path
             id="path108"
             style="fill:#004b87;fill-opacity:1;fill-rule:nonzero;stroke:none"
             d="M 0,0 C 0,2.013 1.598,3.67 3.669,3.67 H 4.438 C 6.036,3.67 7.1,2.841 7.812,1.717 L 20.355,-17.929 32.96,1.776 c 0.77,1.243 1.835,1.894 3.315,1.894 h 0.768 c 2.072,0 3.67,-1.657 3.67,-3.67 v -34.678 c 0,-2.01 -1.598,-3.608 -3.67,-3.608 -1.952,0 -3.608,1.656 -3.608,3.608 v 24.855 l -10.12,-15.208 c -0.77,-1.184 -1.717,-1.894 -3.077,-1.894 -1.302,0 -2.249,0.71 -3.019,1.894 L 7.161,-9.94 v -24.796 c 0,-2.011 -1.598,-3.55 -3.611,-3.55 -2.011,0 -3.55,1.539 -3.55,3.55 z" /></g><g
           transform="translate(552.9854,127.8114)"
           id="g110"><path
             id="path112"
             style="fill:#004b87;fill-opacity:1;fill-rule:nonzero;stroke:none"
             d="M 0,0 V 0.119 C 0,8.166 -5.857,14.853 -14.084,14.853 -22.31,14.853 -28.05,8.286 -28.05,0.237 V 0.119 c 0,-8.049 5.86,-14.676 14.085,-14.676 C -5.74,-14.557 0,-8.047 0,0 m -35.683,0 v 0.119 c 0,11.658 8.996,21.422 21.718,21.422 12.722,0 21.598,-9.646 21.598,-21.304 V 0.119 c 0,-11.657 -8.993,-21.422 -21.717,-21.422 -12.723,0 -21.599,9.645 -21.599,21.303" /></g><g
           transform="translate(568.7793,127.8114)"
           id="g114"><path
             id="path116"
             style="fill:#004b87;fill-opacity:1;fill-rule:nonzero;stroke:none"
             d="m 0,0 v 0.119 c 0,11.776 8.817,21.422 21.363,21.422 6.39,0 10.592,-1.894 14.202,-4.675 0.768,-0.592 1.419,-1.597 1.419,-2.899 0,-2.013 -1.597,-3.552 -3.609,-3.552 -1.005,0 -1.717,0.355 -2.189,0.709 -2.84,2.31 -5.918,3.729 -9.882,3.729 -7.87,0 -13.671,-6.508 -13.671,-14.616 V 0.119 c 0,-8.107 5.74,-14.676 13.671,-14.676 4.378,0 7.338,1.421 10.354,3.965 0.533,0.473 1.302,0.827 2.19,0.827 1.835,0 3.432,-1.538 3.432,-3.371 0,-1.125 -0.533,-2.013 -1.183,-2.605 -3.906,-3.433 -8.344,-5.562 -15.03,-5.562 C 8.996,-21.303 0,-11.893 0,0" /></g><g
           transform="translate(615.4629,145.2088)"
           id="g118"><path
             id="path120"
             style="fill:#004b87;fill-opacity:1;fill-rule:nonzero;stroke:none"
             d="m 0,0 c 0,2.013 1.598,3.67 3.668,3.67 h 0.77 C 6.214,3.67 7.22,2.781 8.226,1.539 L 28.938,-25.269 V 0.179 c 0,1.952 1.598,3.55 3.55,3.55 2.011,0 3.609,-1.598 3.609,-3.55 v -34.795 c 0,-2.014 -1.539,-3.612 -3.55,-3.612 H 32.25 c -1.714,0 -2.781,0.888 -3.787,2.19 L 7.161,-8.461 v -26.275 c 0,-1.952 -1.599,-3.55 -3.552,-3.55 -2.011,0 -3.609,1.598 -3.609,3.55 z" /></g><g
           transform="translate(663.8032,145.328)"
           id="g122"><path
             id="path124"
             style="fill:#004b87;fill-opacity:1;fill-rule:nonzero;stroke:none"
             d="m 0,0 c 0,2.012 1.598,3.609 3.669,3.609 2.012,0 3.61,-1.597 3.61,-3.609 v -34.797 c 0,-2.011 -1.598,-3.608 -3.61,-3.608 -2.071,0 -3.669,1.597 -3.669,3.608 z" /></g><g
           transform="translate(681.4951,127.8114)"
           id="g126"><path
             id="path128"
             style="fill:#004b87;fill-opacity:1;fill-rule:nonzero;stroke:none"
             d="m 0,0 v 0.119 c 0,11.776 8.817,21.422 21.363,21.422 6.39,0 10.591,-1.894 14.202,-4.675 0.768,-0.592 1.419,-1.597 1.419,-2.899 0,-2.013 -1.597,-3.552 -3.609,-3.552 -1.005,0 -1.717,0.355 -2.189,0.709 -2.84,2.31 -5.918,3.729 -9.882,3.729 -7.87,0 -13.671,-6.508 -13.671,-14.616 V 0.119 c 0,-8.107 5.74,-14.676 13.671,-14.676 4.378,0 7.338,1.421 10.354,3.965 0.533,0.473 1.304,0.827 2.19,0.827 1.835,0 3.432,-1.538 3.432,-3.371 0,-1.125 -0.531,-2.013 -1.183,-2.605 -3.906,-3.433 -8.344,-5.562 -15.031,-5.562 C 8.995,-21.303 0,-11.893 0,0" /></g><g
           transform="translate(728.1787,110.8885)"
           id="g130"><path
             id="path132"
             style="fill:#004b87;fill-opacity:1;fill-rule:nonzero;stroke:none"
             d="m 0,0 v 34.085 c 0,2.07 1.598,3.668 3.67,3.668 h 24.084 c 1.773,0 3.254,-1.479 3.254,-3.254 0,-1.835 -1.481,-3.255 -3.254,-3.255 H 7.278 V 20.473 H 25.09 c 1.775,0 3.256,-1.478 3.256,-3.313 0,-1.776 -1.481,-3.195 -3.256,-3.195 H 7.278 V 2.84 H 28.05 c 1.773,0 3.254,-1.48 3.254,-3.256 0,-1.835 -1.481,-3.254 -3.254,-3.254 H 3.67 C 1.598,-3.67 0,-2.072 0,0" /></g><g
           transform="translate(807.1719,113.6678)"
           id="g134"><path
             id="path136"
             style="fill:#004b87;fill-opacity:1;fill-rule:nonzero;stroke:none"
             d="m 0,0 c 4.972,0 7.988,1.954 7.988,5.681 v 0.12 c 0,3.491 -2.782,5.561 -8.521,5.561 h -11.538 l 0,-11.362 z m -2.131,17.518 c 4.675,0 7.812,1.834 7.812,5.622 v 0.117 c 0,3.254 -2.604,5.267 -7.279,5.267 H -12.071 V 17.518 Z m -17.101,13.788 c 0,2.07 1.597,3.668 3.669,3.668 H -0.65 c 4.733,0 8.462,-1.302 10.828,-3.668 1.835,-1.835 2.781,-4.083 2.781,-6.866 v -0.117 c 0,-4.971 -2.84,-7.636 -5.918,-9.233 4.852,-1.656 8.226,-4.438 8.226,-10.06 V 4.912 c 0,-7.395 -6.095,-11.361 -15.326,-11.361 h -15.504 c -2.072,0 -3.669,1.597 -3.669,3.67 z" /></g><g
           transform="translate(831.8398,110.8885)"
           id="g138"><path
             id="path140"
             style="fill:#004b87;fill-opacity:1;fill-rule:nonzero;stroke:none"
             d="m 0,0 v 34.085 c 0,2.07 1.598,3.668 3.668,3.668 h 24.086 c 1.773,0 3.254,-1.479 3.254,-3.254 0,-1.835 -1.481,-3.255 -3.254,-3.255 H 7.278 V 20.473 H 25.09 c 1.775,0 3.256,-1.478 3.256,-3.313 0,-1.776 -1.481,-3.195 -3.256,-3.195 H 7.278 V 2.84 H 28.05 c 1.773,0 3.254,-1.48 3.254,-3.256 0,-1.835 -1.481,-3.254 -3.254,-3.254 H 3.668 C 1.598,-3.67 0,-2.072 0,0" /></g><g
           transform="translate(890.5967,128.1073)"
           id="g142"><path
             id="path144"
             style="fill:#004b87;fill-opacity:1;fill-rule:nonzero;stroke:none"
             d="m 0,0 c 5.207,0 8.521,2.723 8.521,6.924 v 0.117 c 0,4.44 -3.195,6.865 -8.582,6.865 H -10.652 V 0 Z m -17.931,16.866 c 0,2.071 1.598,3.668 3.67,3.668 H 0.531 c 5.209,0 9.292,-1.539 11.954,-4.142 2.19,-2.248 3.433,-5.327 3.433,-8.935 v -0.12 c 0,-6.627 -3.847,-10.65 -9.409,-12.367 l 7.929,-9.999 c 0.711,-0.888 1.184,-1.658 1.184,-2.783 0,-2.012 -1.716,-3.373 -3.491,-3.373 -1.657,0 -2.724,0.771 -3.551,1.894 L -1.479,-6.449 h -9.173 v -11.127 c 0,-2.011 -1.597,-3.609 -3.609,-3.609 -2.072,0 -3.67,1.598 -3.67,3.609 z" /></g><g
           transform="translate(950.4775,127.8114)"
           id="g146"><path
             id="path148"
             style="fill:#004b87;fill-opacity:1;fill-rule:nonzero;stroke:none"
             d="M 0,0 V 0.119 C 0,8.166 -5.857,14.853 -14.085,14.853 -22.31,14.853 -28.05,8.286 -28.05,0.237 V 0.119 c 0,-8.049 5.86,-14.676 14.085,-14.676 C -5.74,-14.557 0,-8.047 0,0 m -35.683,0 v 0.119 c 0,11.658 8.996,21.422 21.718,21.422 12.722,0 21.598,-9.646 21.598,-21.304 V 0.119 c 0,-11.657 -8.993,-21.422 -21.718,-21.422 -12.722,0 -21.598,9.645 -21.598,21.303" /></g><g
           transform="translate(967.4551,124.7948)"
           id="g150"><path
             id="path152"
             style="fill:#004b87;fill-opacity:1;fill-rule:nonzero;stroke:none"
             d="m 0,0 v 20.533 c 0,2.012 1.598,3.61 3.668,3.61 2.013,0 3.61,-1.598 3.61,-3.61 V 0.296 c 0,-7.694 3.964,-11.777 10.475,-11.777 6.449,0 10.414,3.847 10.414,11.481 v 20.533 c 0,2.012 1.598,3.61 3.67,3.61 2.012,0 3.609,-1.598 3.609,-3.61 V 0.354 c 0,-12.367 -6.982,-18.581 -17.811,-18.581 C 6.865,-18.227 0,-12.013 0,0" /></g><g
           transform="translate(1014.0781,145.2088)"
           id="g154"><path
             id="path156"
             style="fill:#004b87;fill-opacity:1;fill-rule:nonzero;stroke:none"
             d="m 0,0 c 0,2.013 1.598,3.67 3.668,3.67 h 0.77 C 6.214,3.67 7.22,2.781 8.226,1.539 L 28.937,-25.269 V 0.179 c 0,1.952 1.598,3.55 3.551,3.55 2.011,0 3.609,-1.598 3.609,-3.55 v -34.795 c 0,-2.014 -1.539,-3.612 -3.55,-3.612 h -0.296 c -1.716,0 -2.782,0.888 -3.787,2.19 L 7.161,-8.461 v -26.275 c 0,-1.952 -1.599,-3.55 -3.552,-3.55 -2.011,0 -3.609,1.598 -3.609,3.55 z" /></g><g
           transform="translate(307.063,151.1092)"
           id="g158"><path
             id="path160"
             style="fill:#004b87;fill-opacity:1;fill-rule:nonzero;stroke:none"
             d="m 0,0 c -1.635,1.041 -5.053,2.378 -11.74,2.378 h -17.239 v -14.86 h 18.874 c 4.309,0 7.876,0.891 10.105,2.526 1.783,1.188 2.526,2.823 2.526,5.201 v 0.149 C 2.526,-2.526 1.783,-1.04 0,0" /></g><g
           transform="translate(305.2793,180.2376)"
           id="g162"><path
             id="path164"
             style="fill:#004b87;fill-opacity:1;fill-rule:nonzero;stroke:none"
             d="M 0,0 V 0.148 C 0,5.499 -5.944,6.539 -10.848,6.539 H -27.344 V -7.728 h 15.753 C -6.093,-7.579 0,-6.242 0,0" /></g><g
           transform="translate(155.7764,187.5194)"
           id="g166"><path
             id="path168"
             style="fill:#004b87;fill-opacity:1;fill-rule:nonzero;stroke:none"
             d="M 0,0 H -17.387 V -22.143 H 0.297 c 4.161,0 7.579,1.04 9.809,3.121 2.229,1.932 3.418,4.607 3.418,7.876 v 0.297 C 13.524,-3.864 8.768,0 0,0" /></g><g
           transform="translate(329.8003,145.7596)"
           id="g170"><path
             id="path172"
             style="fill:#004b87;fill-opacity:1;fill-rule:nonzero;stroke:none"
             d="m 0,0 c 0,-4.013 -0.892,-7.876 -2.526,-11.294 -1.635,-3.269 -4.161,-6.242 -7.282,-8.472 -5.796,-4.309 -13.821,-6.538 -23.184,-6.538 H -62.12 c -0.891,0 -1.931,0.149 -2.823,0.446 -4.161,0.743 -6.687,3.864 -7.579,4.904 l -0.149,0.297 -29.276,38.936 v -33.14 c 0,-6.242 -5.053,-11.294 -11.146,-11.294 -6.093,0 -10.997,5.052 -10.997,11.294 v 63.903 c 0,2.972 1.189,5.647 3.12,7.876 2.081,2.229 5.053,3.418 7.877,3.418 h 1.04 c 5.796,0 8.768,-4.012 9.808,-5.201 L -73.86,17.536 v 31.803 c 0,6.093 4.756,10.997 10.7,11.294 h 0.892 27.79 c 9.957,0 18.131,-2.823 23.629,-8.322 l 0.149,-0.148 c 4.31,-4.459 6.39,-9.809 6.39,-16.05 v -0.149 c 0,-6.39 -2.08,-12.038 -6.093,-16.347 C -2.081,14.118 -0.148,6.539 -0.148,0.446 L 0,0 m -139.694,31.506 c 0,-6.539 -1.635,-12.187 -4.756,-16.793 -2.675,-3.864 -6.539,-6.985 -11.443,-9.214 l 12.038,-14.564 c 1.634,-2.081 3.269,-4.31 3.269,-7.728 0,-2.675 -1.04,-5.201 -3.121,-6.984 -1.783,-1.635 -4.31,-2.527 -6.688,-2.527 -4.012,0 -7.133,1.635 -9.957,5.201 l -17.684,22.441 h -13.227 V -16.05 c 0,-5.796 -4.458,-10.254 -10.254,-10.254 -5.795,0 -10.254,4.458 -10.254,10.254 v 66.281 c 0,5.795 4.459,10.254 10.254,10.254 h 29.128 c 5.35,0 10.254,-0.743 14.564,-2.229 4.161,-1.486 7.876,-3.715 10.7,-6.539 4.904,-4.904 7.431,-11.74 7.431,-19.914 z M 8.917,21.995 c 1.486,4.309 2.377,8.916 2.377,13.82 v 0.149 c 0,10.254 -3.715,19.468 -10.848,26.75 L 0,63.16 c -4.458,4.31 -9.808,7.579 -15.901,9.66 -5.647,1.931 -11.889,2.972 -18.577,2.972 h -27.79 c -0.594,0 -1.337,0 -1.932,-0.149 -6.688,-0.446 -13.078,-3.269 -17.685,-8.322 -2.08,-2.229 -3.715,-4.607 -4.904,-7.282 l -2.972,4.013 c -0.743,1.04 -2.823,3.864 -6.39,6.39 -4.607,3.269 -9.957,5.053 -15.753,5.053 h -1.04 c -7.134,0 -14.119,-2.973 -19.171,-8.174 -1.487,-1.635 -2.824,-3.269 -3.864,-5.053 l -0.297,0.297 c -4.607,4.459 -10.106,8.025 -16.496,10.255 -5.945,2.08 -12.484,3.12 -19.617,3.12 h -29.277 c -3.417,0 -6.835,-0.594 -9.957,-1.932 -3.12,-1.337 -5.944,-3.12 -8.322,-5.498 -2.377,-2.378 -4.161,-5.201 -5.498,-8.322 -1.338,-3.121 -1.932,-6.539 -1.932,-9.958 v -66.28 c 0,-3.418 0.594,-6.836 1.932,-9.957 1.337,-3.121 3.121,-5.944 5.498,-8.322 2.378,-2.378 5.202,-4.161 8.322,-5.499 3.122,-1.337 6.54,-1.932 9.957,-1.932 3.418,0 6.837,0.743 9.958,1.932 3.121,1.338 5.944,3.121 8.322,5.499 2.378,2.378 4.161,5.201 5.498,8.322 0.149,0.445 0.446,0.892 0.595,1.486 l 4.755,-6.093 c 7.134,-9.214 16.05,-11.146 22.143,-11.146 3.121,0 6.242,0.595 9.214,1.783 2.973,1.19 5.648,2.825 8.025,4.905 0.446,0.446 0.892,0.891 1.338,1.338 4.755,-4.905 11.443,-7.877 18.874,-7.877 10.997,0 20.508,6.687 24.52,16.347 l 3.419,-4.607 c 0.148,-0.297 0.445,-0.445 0.594,-0.743 0.743,-0.892 2.378,-2.824 4.904,-4.904 3.27,-2.675 6.985,-4.31 10.849,-5.202 2.08,-0.593 4.309,-0.891 6.39,-0.891 h 29.128 c 12.78,0 23.926,3.269 32.397,9.511 5.053,3.715 9.065,8.471 11.889,13.969 2.824,5.499 4.161,11.74 4.161,18.279 v 0.149 c 0.149,8.025 -2.229,15.456 -6.39,21.698" /></g><g
           transform="translate(307.063,151.1092)"
           id="g174"><path
             id="path176"
             style="fill:#004b87;fill-opacity:1;fill-rule:nonzero;stroke:none"
             d="m 0,0 c -1.635,1.041 -5.053,2.378 -11.74,2.378 h -17.239 v -14.86 h 18.874 c 4.309,0 7.876,0.891 10.105,2.526 1.783,1.188 2.526,2.823 2.526,5.201 v 0.149 C 2.526,-2.526 1.783,-1.04 0,0" /></g><g
           transform="translate(305.2793,180.2376)"
           id="g178"><path
             id="path180"
             style="fill:#004b87;fill-opacity:1;fill-rule:nonzero;stroke:none"
             d="M 0,0 V 0.148 C 0,5.499 -5.944,6.539 -10.848,6.539 H -27.344 V -7.728 h 15.753 C -6.093,-7.579 0,-6.242 0,0" /></g><g
           transform="translate(155.7764,187.5194)"
           id="g182"><path
             id="path184"
             style="fill:#004b87;fill-opacity:1;fill-rule:nonzero;stroke:none"
             d="M 0,0 H -17.387 V -22.143 H 0.297 c 4.161,0 7.579,1.04 9.809,3.121 2.229,1.932 3.418,4.607 3.418,7.876 v 0.297 C 13.524,-3.864 8.768,0 0,0" /></g></g></g></g></g></svg>