<?xml version="1.0" encoding="utf-8"?>
<!-- Generator: Adobe Illustrator 19.1.0, SVG Export Plug-In . SVG Version: 6.00 Build 0)  -->
<svg version="1.1" id="Layer_1" xmlns="http://www.w3.org/2000/svg" xmlns:xlink="http://www.w3.org/1999/xlink" height="136" width="737" 
	 viewBox="0 0 737 136" xml:space="preserve">
<style type="text/css">
	.st0{fill:#1799CC;}
	.st1{fill:none;stroke:#1799CC;stroke-miterlimit:10;}
</style>
<g transform="translate(-107,-94)">
<path class="st0" d="M598.3,219.1c-13.1,0-22.9-10.2-22.9-23.2v-0.1c0-12.8,9.6-23.3,23.2-23.3c6.9,0,11.5,2.1,15.4,5.1
	c0.8,0.6,1.5,1.7,1.5,3.2c0,2.2-1.7,3.9-3.9,3.9c-1.1,0-1.9-0.4-2.4-0.8c-3.1-2.5-6.4-4.1-10.7-4.1c-8.6,0-14.8,7.1-14.8,15.9v0.1
	c0,8.8,6.2,16,14.8,16c4.8,0,8-1.5,11.2-4.3c0.6-0.5,1.4-0.9,2.4-0.9c2,0,3.7,1.7,3.7,3.7c0,1.2-0.6,2.2-1.3,2.8
	C610.4,216.8,605.6,219.1,598.3,219.1 M473.4,219.1c-13.8,0-23.4-10.5-23.4-23.2v-0.1c0-12.7,9.8-23.3,23.5-23.3
	c13.8,0,23.4,10.5,23.4,23.2v0.1C497,208.5,487.2,219.1,473.4,219.1 M473.4,179.7c-8.9,0-15.2,7.2-15.2,15.9v0.1
	c0,8.8,6.4,16,15.3,16c8.9,0,15.2-7.1,15.2-15.8v-0.1C488.7,187,482.3,179.7,473.4,179.7 M368.3,219.1c-13.8,0-23.4-10.5-23.4-23.2
	v-0.1c0-12.7,9.8-23.3,23.5-23.3c13.8,0,23.4,10.5,23.4,23.2v0.1C391.9,208.4,382.1,219.1,368.3,219.1 M368.3,179.7
	c-8.9,0-15.2,7.1-15.2,15.9v0.1c0,8.8,6.4,16,15.3,16c8.9,0,15.2-7.1,15.2-15.9v-0.1C383.6,187,377.2,179.7,368.3,179.7 M524.6,219
	h-0.4c-2.2,0-3.7-1.2-4.5-3.2l-15.7-37.1c-0.2-0.6-0.5-1.2-0.5-1.9c0-2.1,1.7-3.9,4-3.9c2.1,0,3.4,1.2,4.1,2.8l13,32.5l13.2-32.8
	c0.5-1.3,1.9-2.6,3.8-2.6c2.2,0,3.9,1.7,3.9,3.8c0,0.6-0.2,1.2-0.4,1.7l-15.8,37.4C528.3,217.7,526.9,219,524.6,219 M559.5,218.6
	c-2.2,0-4-1.7-4-3.9v-37.9c0-2.2,1.7-3.9,4-3.9c2.2,0,3.9,1.7,3.9,3.9v37.9C563.4,216.9,561.7,218.6,559.5,218.6 M436.4,218.6
	c-1.8,0-3-0.8-3.9-2.1l-10.9-14h-9.9v12.1c0,2.2-1.7,3.9-3.9,3.9c-2.2,0-4-1.7-4-3.9v-37.5c0-2.3,1.7-4,4-4h16
	c5.6,0,10.1,1.7,13,4.5c2.4,2.4,3.7,5.8,3.7,9.7v0.1c0,7.2-4.2,11.6-10.2,13.5l8.6,10.9c0.8,1,1.3,1.8,1.3,3
	C440.2,217.1,438.3,218.6,436.4,218.6 M411.7,180.4v15.1h11.6c5.6,0,9.2-3,9.2-7.5v-0.1c0-4.8-3.5-7.5-9.3-7.5H411.7z M329,218.6
	c-2.2,0-3.9-1.7-3.9-3.9v-15.4h-21.4v15.4c0,2.2-1.7,3.9-3.9,3.9c-2.2,0-4-1.7-4-3.9v-37.9c0-2.2,1.7-3.9,4-3.9
	c2.2,0,3.9,1.7,3.9,3.9V192h21.4v-15.1c0-2.2,1.7-3.9,3.9-3.9c2.2,0,4,1.7,4,3.9v37.9C333,216.9,331.3,218.6,329,218.6 M657.6,218.3
	h-26.4c-2.2,0-4-1.7-4-4v-37.1c0-2.3,1.7-4,4-4h26.1c1.9,0,3.5,1.6,3.5,3.5c0,2-1.6,3.5-3.5,3.5h-22.2V192h19.3
	c1.9,0,3.5,1.6,3.5,3.6c0,1.9-1.6,3.5-3.5,3.5h-19.3v12.1h22.5c1.9,0,3.5,1.6,3.5,3.5C661.1,216.8,659.5,218.3,657.6,218.3
	 M422.8,169.7h-2.3c-1.8,0-2.8-0.7-3.7-1.9l-4.2-5.3c-0.4-0.5-0.8-1-0.8-1.5c0-0.8,0.8-1.3,1.9-1.3c1.8,0,3.1,0.3,4.8,1.7l3.3,2.9
	l3.3-2.9c1.7-1.4,3-1.7,4.8-1.7c1,0,1.7,0.5,1.7,1.3c0,0.5-0.4,1-0.8,1.5l-4.2,5.3C425.6,169,424.6,169.7,422.8,169.7 M606.1,148
	c-12.2,0-21.1-9.6-21.1-21.8v-0.1c0-12,8.9-21.9,21.3-21.9c6.8,0,11.1,2.2,15,5.5c0.5,0.4,1,1.1,1,1.9c0,1.3-1.2,2.4-2.4,2.4
	c-0.7,0-1.2-0.3-1.6-0.5c-3.2-2.9-6.9-4.8-12.1-4.8c-9.3,0-16.3,7.6-16.3,17.3v0.1c0,9.8,7,17.5,16.3,17.5c5.2,0,8.9-1.8,12.5-5.1
	c0.4-0.4,0.9-0.7,1.5-0.7c1.2,0,2.3,1.1,2.3,2.3c0,0.7-0.4,1.3-0.8,1.7C617.6,145.6,613,148,606.1,148 M500.4,148
	c-12.2,0-21.1-9.6-21.1-21.8v-0.1c0-12,8.9-21.9,21.3-21.9c6.8,0,11.1,2.2,15,5.5c0.5,0.4,1,1.1,1,1.9c0,1.3-1.1,2.4-2.4,2.4
	c-0.7,0-1.2-0.3-1.6-0.5c-3.2-2.9-6.9-4.8-12.1-4.8c-9.3,0-16.3,7.6-16.3,17.3v0.1c0,9.8,7,17.5,16.3,17.5c5.2,0,8.9-1.8,12.5-5.1
	c0.4-0.4,0.9-0.7,1.5-0.7c1.2,0,2.3,1.1,2.3,2.3c0,0.7-0.4,1.3-0.8,1.7C511.9,145.6,507.3,148,500.4,148 M451.2,148
	c-12.8,0-21.4-10.1-21.4-21.8v-0.1c0-11.7,8.7-21.9,21.6-21.9c12.8,0,21.4,10.1,21.4,21.8v0.1C472.7,137.8,464,148,451.2,148
	 M451.2,108.7c-9.6,0-16.5,7.7-16.5,17.3v0.1c0,9.6,7,17.5,16.6,17.5c9.6,0,16.5-7.7,16.5-17.3v-0.1
	C467.8,116.5,460.8,108.7,451.2,108.7 M573.6,147.6c-1.3,0-2.4-1.1-2.4-2.4v-38.1c0-1.3,1.1-2.4,2.4-2.4c1.3,0,2.4,1.1,2.4,2.4v38.1
	C576,146.5,575,147.6,573.6,147.6 M526.8,147.6c-1.3,0-2.3-1.1-2.3-2.4v-38.1c0-1.3,1.1-2.4,2.4-2.4h0.7c1.1,0,1.7,0.5,2.4,1.4
	l25.6,32.7V107c0-1.3,1-2.4,2.3-2.4c1.3,0,2.3,1.1,2.3,2.4v38.2c0,1.3-0.9,2.2-2.2,2.2h-0.2c-1,0-1.7-0.6-2.5-1.4l-26.1-33.5v32.7
	C529.1,146.5,528.1,147.6,526.8,147.6 M418.7,147.6c-1.3,0-2.4-1.2-2.4-2.4v-31.5l-13.5,19.9c-0.5,0.8-1.1,1.2-2,1.2
	c-0.8,0-1.5-0.4-2-1.2l-13.4-19.8v31.5c0,1.3-1,2.4-2.4,2.4c-1.3,0-2.3-1-2.3-2.4v-38.1c0-1.3,1.1-2.4,2.4-2.4h0.5
	c1,0,1.7,0.5,2.2,1.3l15,22.7l15-22.7c0.5-0.8,1.3-1.3,2.2-1.3h0.5c1.3,0,2.3,1.1,2.3,2.4v38C421,146.5,419.9,147.6,418.7,147.6
	 M298.3,147.6c-1.3,0-2.3-1.1-2.3-2.4v-38.1c0-1.3,1.1-2.4,2.3-2.4h0.7c1.1,0,1.7,0.5,2.4,1.4l25.6,32.7V107c0-1.3,1-2.4,2.4-2.4
	c1.3,0,2.3,1.1,2.3,2.4v38.2c0,1.3-0.9,2.2-2.2,2.2h-0.2c-1,0-1.7-0.6-2.5-1.4l-26.1-33.5v32.7C300.6,146.5,299.6,147.6,298.3,147.6
	 M659,147.2h-26.5c-1.3,0-2.4-1.1-2.4-2.4v-37.5c0-1.3,1.1-2.4,2.4-2.4h26.2c1.2,0,2.2,1,2.2,2.2c0,1.2-1,2.2-2.2,2.2h-23.8v14.4
	H656c1.2,0,2.2,1,2.2,2.2c0,1.2-1,2.2-2.2,2.2h-21.1v14.8H659c1.2,0,2.2,1,2.2,2.2C661.1,146.3,660.2,147.2,659,147.2 M371.4,147.3
	h-26.5c-1.2,0-2.3-1.1-2.3-2.4v-37.5c0-1.3,1.1-2.4,2.3-2.4h26.2c1.2,0,2.2,1,2.2,2.2c0,1.2-1,2.2-2.2,2.2h-23.8v14.4h21.1
	c1.2,0,2.2,1,2.2,2.2c0,1.2-1,2.2-2.2,2.2h-21.1v14.8h24.1c1.2,0,2.2,1,2.2,2.2C373.6,146.3,372.6,147.2,371.4,147.3 M236.9,221
	c-11.2,0-20.8-7-25.1-17.1c-0.2,0.6-0.5,1.1-0.8,1.7l-1,1.9c-1.6,2.9-3.7,5.4-6.3,7.4c-1.7,1.3-3.4,2.4-5.3,3.3
	c-0.3,0.2-0.6,0.3-1,0.4l-4,1.4c-2.2,0.6-4.4,0.9-6.7,0.9c-4.4,0-8.8-1.1-12.8-3.3c-3.8-1.9-7.1-4.6-9.7-7.9l-3-3.9
	c-4.7,9-13.8,15.1-24.2,15.1c-15.2,0-27.5-12.9-27.5-28.8v-60c0-5.4,1.5-10.7,4.3-15.3c1.7-3,3.9-5.6,6.5-7.7c1.8-1.5,3.8-2.7,6-3.6
	l4.2-1.4c2.1-0.6,4.4-0.8,6.6-0.8c8.7,0,17,4,22.6,11l3,3.9c4.7-8.8,13.7-14.8,24-14.8c11.2,0,20.8,7,25.1,17.1
	c4.3-10.1,13.9-17.1,25.1-17.1c15.2,0,27.5,12.9,27.5,28.8v60C264.4,208.1,252.1,221,236.9,221 M198.4,174h26.8v18.2
	c0,7.2,5.3,13,11.7,13c6.5,0,11.7-5.8,11.7-13v-60c0-7.1-5.3-13-11.7-13c-6.5,0-11.7,5.8-11.7,13v18.3h-26.8v-18.3
	c0-7.1-5.3-13-11.7-13c-6.5,0-11.7,5.8-11.7,13v27.5l-27.6-35.4c-2.6-3.2-6.4-5.1-10.3-5.1c-2.6,0-5,0.8-6.9,2.4
	c-1.1,0.9-2,2-2.7,3.3c-1.4,2.2-2.1,4.7-2.1,7.4v60c0,7.2,5.3,13,11.7,13c6.5,0,11.7-5.8,11.7-13v-28l27.8,35.7
	c1.3,1.6,2.9,2.9,4.8,3.8c1.7,1,3.6,1.5,5.4,1.5c1.6,0,3.3-0.4,4.8-1.2c0.8-0.4,1.5-0.8,2.2-1.4c1-0.8,1.9-1.9,2.6-3.1l0.2-0.4
	l0.2-0.3c1.1-2,1.7-4.3,1.7-6.6V174"/>
<path class="st0" d="M831.3,123.9c-3.5-4.8-7.8-8.9-12.7-12.2c-0.9-0.6-1.8-1.1-2.7-1.7c-15.2-8.9-33.9-9.1-48.8-0.6
	c-16.6,9.5-25.5,28.1-22.3,46.4c3,17.2,16.8,30.8,33.6,33.2c11.4,1.6,22.9-2.1,30.9-9.9c7.2-7.1,10.9-17.5,9.9-27.6
	c-0.7-9-5.7-16-12.1-20.7c-7.7-5.7-18.1-7-26.6-3.4c-7.7,3.3-13.2,10.6-14.1,18.6c-0.6,5.3,1.1,10.9,4.4,15c2.9,3.6,7,5.8,11.4,6.2
	c5.3,0.5,10.9-2.2,13.6-6.5c2.2-3.6,2.2-7.8-0.1-11.5c-1.4-2.4-4.5-3.1-6.9-1.6c-1.1,0.6-1.8,1.7-2.2,2.9c-0.2,0.6-0.3,1.2-0.2,1.8
	c0.1,0.8,0.4,1.5,0.4,2.3c0,0.9-0.4,1.9-1.3,2.3c-0.8,0.3-1.6,0.6-2.4,0.5c-1.8-0.2-3.3-1-4.6-2.6c-1.7-2-2.5-5-2.2-7.6
	c0.5-4.4,3.7-8.5,8.1-10.5c5.2-2.3,11.8-1.4,16.7,2.2c4.1,3.1,7.4,7.4,7.9,13.6c0.6,7.7-1.8,14.5-7,19.6c-5.7,5.6-14.1,8.3-22.4,7.1
	c-12.5-1.8-22.8-12.1-25.1-25.1c-2.5-13.9,4.7-28.7,17.4-36c11.7-6.7,26.9-6.5,38.9,0.5c5.1,3,9.4,7,12.8,11.8
	c7.4,10.7,7.9,22.3,7.9,34.8c0,3.2,0,7.6,0,10.8v8.3c0,0,0,0,0,0c0,2.8,2.2,5,5,5c2.8,0,5-2.2,5-5c0,0,0,0,0,0h0v-8.3
	C841.6,158.3,842.5,139.2,831.3,123.9"/>
<path class="st0" d="M756.6,212.5l-2.7-6.5l-2.7,6.5H756.6z M744.5,217.9l6.8-15.4c0.5-1.1,1.3-1.7,2.5-1.7h0.3c1.2,0,2,0.6,2.5,1.7
	l6.8,15.4c0.1,0.3,0.2,0.6,0.2,0.9c0,1.2-0.9,2.1-2,2.1c-1,0-1.7-0.6-2.1-1.5l-1.3-3.1h-8.6l-1.4,3.2c-0.4,0.8-1.1,1.3-2,1.3
	c-1.1,0-2-0.9-2-2C744.2,218.5,744.4,218.2,744.5,217.9"/>
<path class="st0" d="M766.5,203c0-1.2,1-2.2,2.2-2.2c1.2,0,2.2,1,2.2,2.2v6.6l8-7.9c0.5-0.5,1.1-0.8,1.8-0.8c1.2,0,2,0.9,2,2
	c0,0.7-0.3,1.2-0.8,1.6l-5.5,5.2l6,7.6c0.3,0.4,0.6,0.9,0.6,1.5c0,1.2-0.9,2.1-2.2,2.1c-0.8,0-1.3-0.4-1.8-1l-5.6-7.3l-2.5,2.3v3.9
	c0,1.2-1,2.2-2.2,2.2c-1.2,0-2.2-1-2.2-2.2V203z"/>
<path class="st0" d="M786,218.5v-15.3c0-1.2,1-2.2,2.2-2.2H799c1.1,0,1.9,0.9,1.9,1.9s-0.9,1.9-1.9,1.9h-8.7v4h7.5
	c1.1,0,1.9,0.9,1.9,1.9c0,1.1-0.9,1.9-1.9,1.9h-7.5v4.1h8.9c1.1,0,1.9,0.9,1.9,1.9c0,1.1-0.9,1.9-1.9,1.9h-11
	C786.9,220.7,786,219.7,786,218.5"/>
<path class="st0" d="M803.8,218.6c-0.5-0.3-0.8-1-0.8-1.6c0-1.1,0.9-2,2-2c0.6,0,1,0.2,1.2,0.4c1.5,1.1,3.1,1.8,5,1.8
	c1.8,0,2.8-0.7,2.8-1.9v-0.1c0-1.1-0.7-1.7-4-2.5c-4-1-6.5-2.1-6.5-6v-0.1c0-3.6,2.9-5.9,6.9-5.9c2.4,0,4.5,0.6,6.2,1.7
	c0.5,0.3,1,0.9,1,1.7c0,1.1-0.9,2-2,2c-0.4,0-0.8-0.1-1.1-0.3c-1.4-0.8-2.8-1.3-4.1-1.3c-1.7,0-2.5,0.8-2.5,1.7v0.1
	c0,1.3,0.8,1.7,4.2,2.6c4,1,6.2,2.5,6.2,5.9v0.1c0,3.9-3,6.1-7.2,6.1C808.6,221,806,220.2,803.8,218.6"/>
<path class="st0" d="M837.1,210.9L837.1,210.9c0-3.4-2.5-6.2-5.9-6.2c-3.5,0-5.9,2.7-5.9,6.1v0.1c0,3.4,2.5,6.2,5.9,6.2
	C834.7,217,837.1,214.3,837.1,210.9 M820.8,210.9L820.8,210.9c0-5.6,4.4-10.2,10.5-10.2c6.1,0,10.4,4.5,10.4,10.1v0.1
	c0,5.6-4.4,10.1-10.5,10.1C825.1,221,820.8,216.5,820.8,210.9"/>
<line class="st1" x1="703" y1="96.1" x2="703" y2="228.1"/>
</g>
</svg>
