<?xml version="1.0" encoding="UTF-8" standalone="no"?>
<svg
   xmlns:dc="http://purl.org/dc/elements/1.1/"
   xmlns:cc="http://creativecommons.org/ns#"
   xmlns:rdf="http://www.w3.org/1999/02/22-rdf-syntax-ns#"
   xmlns:svg="http://www.w3.org/2000/svg"
   xmlns="http://www.w3.org/2000/svg"
   viewBox="0 0 567 180"
   height="180"
   width="567"
   xml:space="preserve"
   id="svg2"
   version="1.1"><g transform="translate(-605,-127)"><metadata
     id="metadata8"><rdf:RDF><cc:Work
         rdf:about=""><dc:format>image/svg+xml</dc:format><dc:type
           rdf:resource="http://purl.org/dc/dcmitype/StillImage" /></cc:Work></rdf:RDF></metadata><defs
     id="defs6"><clipPath
       id="clipPath18"
       clipPathUnits="userSpaceOnUse"><path
         id="path16"
         d="M 0,325.6 H 1332 V 0 H 0 Z" /></clipPath></defs><g
     transform="matrix(1.3333333,0,0,-1.3333333,0,434.13333)"
     id="g10"><g
       id="g12"><g
         clip-path="url(#clipPath18)"
         id="g14"><g
           transform="translate(659.6001,151.1004)"
           id="g20"><path
             id="path22"
             style="fill:#004b87;fill-opacity:1;fill-rule:nonzero;stroke:none"
             d="M 0,0 C -1.6,1 -5.1,2.399 -11.7,2.399 H -28.9 V -12.5 H -10 c 4.3,0 7.9,0.899 10.1,2.5 1.8,1.199 2.5,2.8 2.5,5.199 V -4.7 C 2.6,-2.601 1.8,-1.101 0,0" /></g><g
           transform="translate(657.7998,180.2)"
           id="g24"><path
             id="path26"
             style="fill:#004b87;fill-opacity:1;fill-rule:nonzero;stroke:none"
             d="M 0,0 V 0.1 C 0,5.5 -5.9,6.5 -10.8,6.5 H -27.3 V -7.7 h 15.8 C -6,-7.6 0,-6.3 0,0" /></g><g
           transform="translate(508.2998,187.4998)"
           id="g28"><path
             id="path30"
             style="fill:#004b87;fill-opacity:1;fill-rule:nonzero;stroke:none"
             d="M 0,0 H -17.4 V -22.1 H 0.3 c 4.2,0 7.6,1 9.8,3.1 2.2,1.9 3.4,4.6 3.4,7.9 v 0.3 C 13.6,-3.9 8.8,0 0,0" /></g><g
           transform="translate(682.4004,145.7)"
           id="g32"><path
             id="path34"
             style="fill:#004b87;fill-opacity:1;fill-rule:nonzero;stroke:none"
             d="m 0,0 c 0,-4 -0.9,-7.9 -2.5,-11.3 -1.601,-3.3 -4.2,-6.2 -7.301,-8.5 -5.8,-4.3 -13.8,-6.5 -23.199,-6.5 h -29.101 c -0.899,0 -1.899,0.1 -2.799,0.4 -4.201,0.7 -6.701,3.9 -7.6,4.9 l -0.1,0.3 -29.4,39 v -33.1 c 0,-6.2 -5.1,-11.3 -11.1,-11.3 -6,0 -11,5.1 -11,11.3 v 63.9 c 0,3 1.2,5.6 3.1,7.9 2.1,2.2 5.1,3.4 7.9,3.4 h 1 c 5.8,0 8.8,-4 9.8,-5.2 l 28.4,-37.6 v 31.8 c 0,6.1 4.8,11 10.7,11.3 h 0.9 27.8 c 10,0 18.1,-2.8 23.6,-8.3 l 0.099,-0.1 C -6.5,47.8 -4.4,42.5 -4.4,36.2 v -0.1 c 0,-6.4 -2.1,-12 -6.1,-16.3 C -2.2,14.3 -0.2,6.7 -0.2,0.6 L 0,0 m -139.7,31.5 c 0,-6.5 -1.6,-12.2 -4.8,-16.8 -2.7,-3.9 -6.5,-7 -11.4,-9.2 l 12,-14.6 c 1.6,-2.1 3.299,-4.3 3.299,-7.7 0,-2.7 -1,-5.2 -3.099,-7 -1.8,-1.6 -4.3,-2.5 -6.7,-2.5 -4,0 -7.1,1.6 -10,5.2 L -178.101,1.3 H -191.3 v -17.4 c 0,-5.8 -4.5,-10.3 -10.301,-10.3 -5.799,0 -10.299,4.5 -10.299,10.3 v 66.3 c 0,5.8 4.5,10.3 10.299,10.3 h 29.101 c 5.399,0 10.3,-0.7 14.6,-2.2 4.2,-1.5 7.9,-3.7 10.7,-6.5 4.9,-4.9 7.4,-11.7 7.4,-19.9 z M 8.899,22 c 1.5,4.3 2.401,8.9 2.401,13.8 v 0.1 c 0,10.3 -3.7,19.5 -10.8,26.8 l -0.4,0.4 c -4.5,4.3 -9.8,7.6 -15.901,9.7 -5.599,1.9 -11.899,3 -18.599,3 h -27.8 c -0.6,0 -1.3,0 -1.901,-0.1 C -70.8,75.3 -77.2,72.4 -81.8,67.4 c -2.1,-2.2 -3.7,-4.6 -4.9,-7.3 l -3,4 c -0.7,1 -2.8,3.9 -6.401,6.4 -4.599,3.3 -10,5.1 -15.799,5.1 h -1 c -7.1,0 -14.1,-3 -19.201,-8.2 -1.5,-1.6 -2.799,-3.3 -3.899,-5.1 l -0.3,0.3 c -4.6,4.5 -10.1,8 -16.5,10.3 -5.901,2.1 -12.5,3.1 -19.6,3.1 h -29.301 c -3.4,0 -6.799,-0.6 -10,-1.9 -3.099,-1.3 -5.9,-3.1 -8.299,-5.5 -2.4,-2.4 -4.201,-5.2 -5.5,-8.3 -1.3,-3.1 -1.9,-6.5 -1.9,-10 V -16 c 0,-3.4 0.6,-6.8 1.9,-10 1.299,-3.1 3.1,-5.9 5.5,-8.3 2.399,-2.4 5.2,-4.2 8.299,-5.5 3.1,-1.3 6.5,-1.9 10,-1.9 3.5,0 6.801,0.7 10,1.9 3.1,1.3 5.901,3.1 8.301,5.5 2.4,2.4 4.199,5.2 5.5,8.3 0.1,0.4 0.4,0.9 0.6,1.5 l 4.8,-6.1 c 7.1,-9.2 16.1,-11.1 22.1,-11.1 3.1,0 6.199,0.6 9.199,1.8 3,1.2 5.6,2.8 8,4.9 0.401,0.4 0.901,0.9 1.301,1.3 4.799,-4.9 11.4,-7.9 18.9,-7.9 11,0 20.5,6.7 24.5,16.3 l 3.399,-4.6 c 0.101,-0.3 0.401,-0.4 0.601,-0.7 0.7,-0.9 2.399,-2.8 4.899,-4.9 3.301,-2.7 7,-4.3 10.801,-5.2 2.099,-0.6 4.3,-0.9 6.4,-0.9 h 29.1 c 12.8,0 23.9,3.3 32.4,9.5 5.099,3.7 9.099,8.5 11.9,14 2.8,5.5 4.199,11.7 4.199,18.3 v 0.1 c 0.2,8 -2.199,15.5 -6.3,21.7" /></g><g
           transform="translate(659.6001,151.1004)"
           id="g36"><path
             id="path38"
             style="fill:#004b87;fill-opacity:1;fill-rule:nonzero;stroke:none"
             d="M 0,0 C -1.6,1 -5.1,2.399 -11.7,2.399 H -28.9 V -12.5 H -10 c 4.3,0 7.9,0.899 10.1,2.5 1.8,1.199 2.5,2.8 2.5,5.199 V -4.7 C 2.6,-2.601 1.8,-1.101 0,0" /></g><g
           transform="translate(657.7998,180.2)"
           id="g40"><path
             id="path42"
             style="fill:#004b87;fill-opacity:1;fill-rule:nonzero;stroke:none"
             d="M 0,0 V 0.1 C 0,5.5 -5.9,6.5 -10.8,6.5 H -27.3 V -7.7 h 15.8 C -6,-7.6 0,-6.3 0,0" /></g><g
           transform="translate(508.2998,187.4998)"
           id="g44"><path
             id="path46"
             style="fill:#004b87;fill-opacity:1;fill-rule:nonzero;stroke:none"
             d="M 0,0 H -17.4 V -22.1 H 0.3 c 4.2,0 7.6,1 9.8,3.1 2.2,1.9 3.4,4.6 3.4,7.9 v 0.3 C 13.6,-3.9 8.8,0 0,0" /></g><path
           id="path48"
           style="fill:#004b87;fill-opacity:1;fill-rule:nonzero;stroke:none"
           d="m 737.7,228.8 h 1.6 v -132 h -1.6 z" /><g
           transform="translate(866.7002,200.9998)"
           id="g50"><path
             id="path52"
             style="fill:#004b87;fill-opacity:1;fill-rule:nonzero;stroke:none"
             d="m 0,0 c -3.5,4.8 -7.8,8.9 -12.7,12.2 -0.901,0.6 -1.7,1.1 -2.7,1.7 -15.201,8.9 -33.9,9.1 -48.8,0.5 -16.6,-9.5 -25.5,-28.1 -22.3,-46.4 3,-17.2 16.8,-30.8 33.5,-33.2 11.399,-1.6 22.899,2.1 30.899,9.9 7.201,7.1 10.801,17.5 9.901,27.6 -0.7,9 -5.7,16 -12,20.7 -7.7,5.7 -18.1,7 -26.6,3.4 -7.7,-3.3 -13.2,-10.6 -14.1,-18.5 -0.6,-5.3 1.1,-10.9 4.4,-15 2.9,-3.6 7,-5.799 11.4,-6.2 5.3,-0.5 10.9,2.2 13.6,6.5 2.2,3.6 2.2,7.8 -0.1,11.5 -1.4,2.4 -4.5,3.1 -6.9,1.6 -1,-0.7 -1.8,-1.7 -2.2,-2.9 -0.2,-0.6 -0.3,-1.2 -0.2,-1.8 0.1,-0.8 0.4,-1.5 0.4,-2.3 0,-1 -0.5,-1.9 -1.4,-2.3 -0.8,-0.3 -1.6,-0.5 -2.4,-0.5 -1.801,0.2 -3.301,1 -4.6,2.6 -1.701,2 -2.5,5 -2.201,7.6 0.5,4.4 3.701,8.5 8.101,10.5 5.2,2.3 11.8,1.4 16.7,-2.2 4.1,-3.1 7.4,-7.4 7.9,-13.6 0.6,-7.7 -1.9,-14.5 -7,-19.6 -5.701,-5.6 -14.1,-8.3 -22.4,-7.1 -12.5,1.8 -22.801,12.1 -25.1,25.1 -2.5,13.9 4.7,28.7 17.4,36 11.7,6.7 26.9,6.5 38.8,-0.5 5.099,-3 9.4,-7 12.8,-11.8 C -0.5,-17.2 0,-28.8 0,-41.3 v -10.8 -8.299 c 0,-2.701 2.2,-5 5,-5 2.7,0 5,2.199 5,5 V -52.1 C 10.3,-34.4 11.1,-15.3 0,0" /></g><g
           transform="translate(779.9004,106.9998)"
           id="g54"><path
             id="path56"
             style="fill:#004b87;fill-opacity:1;fill-rule:nonzero;stroke:none"
             d="m 0,0 6.8,15.5 c 0.5,1.101 1.399,1.7 2.5,1.7 h 0.3 c 1.2,0 2,-0.7 2.5,-1.7 L 18.899,0 C 19,-0.3 19.1,-0.6 19.1,-0.899 19.1,-2.1 18.199,-3 17,-3 c -1,0 -1.7,0.601 -2.101,1.5 L 13.6,1.601 H 5 L 3.6,-1.6 C 3.199,-2.5 2.5,-3 1.6,-3 c -1.1,0 -2,0.9 -2,2 0.099,0.4 0.2,0.7 0.4,1 M 12.1,5.5 9.399,12 6.699,5.5 Z" /></g><g
           transform="translate(801.9004,121.9002)"
           id="g58"><path
             id="path60"
             style="fill:#004b87;fill-opacity:1;fill-rule:nonzero;stroke:none"
             d="m 0,0 c 0,1.2 1,2.2 2.199,2.2 1.2,0 2.2,-1 2.2,-2.2 v -6.601 l 8,7.901 c 0.5,0.5 1.101,0.9 1.8,0.9 1.2,0 2,-0.9 2,-2 0,-0.7 -0.3,-1.2 -0.8,-1.6 l -5.5,-5.201 6,-7.599 c 0.3,-0.401 0.601,-0.901 0.601,-1.5 0,-1.2 -0.9,-2.1 -2.2,-2.1 -0.901,0 -1.401,0.4 -1.8,1 l -5.601,7.4 -2.5,-2.3 v -3.901 c 0,-1.199 -1,-2.199 -2.2,-2.199 C 1,-17.8 0,-16.8 0,-15.601 Z" /></g><g
           transform="translate(821.2998,106.4002)"
           id="g62"><path
             id="path64"
             style="fill:#004b87;fill-opacity:1;fill-rule:nonzero;stroke:none"
             d="m 0,0 v 15.3 c 0,1.2 1,2.2 2.2,2.2 H 13.101 C 14.2,17.5 15,16.6 15,15.6 c 0,-1 -0.899,-1.9 -1.899,-1.9 H 4.3 v -4 h 7.5 c 1.1,0 1.9,-0.9 1.9,-1.9 0,-1 -0.9,-1.901 -1.9,-1.901 H 4.3 V 1.8 h 8.9 c 1.1,0 1.901,-0.901 1.901,-1.901 C 15.101,-1.2 14.2,-2 13.2,-2 H 2.2 C 1,-2.101 0,-1.2 0,0" /></g><g
           transform="translate(839.2002,106.2997)"
           id="g66"><path
             id="path68"
             style="fill:#004b87;fill-opacity:1;fill-rule:nonzero;stroke:none"
             d="m 0,0 c -0.5,0.301 -0.8,1 -0.8,1.601 0,1.099 0.9,2 2,2 0.6,0 1,-0.201 1.199,-0.401 1.5,-1.099 3.101,-1.8 5,-1.8 C 9.2,1.4 10.2,2.101 10.2,3.301 V 3.4 c 0,1.1 -0.7,1.701 -3.9,2.5 -3.901,1 -6.5,2.1 -6.5,6 V 12 c 0,3.601 2.9,5.9 6.9,5.9 2.4,0 4.5,-0.599 6.199,-1.7 0.5,-0.3 1,-0.899 1,-1.7 0,-1.1 -0.899,-2 -2,-2 -0.399,0 -0.799,0.101 -1.099,0.301 -1.401,0.899 -2.8,1.3 -4.1,1.3 -1.7,0 -2.5,-0.8 -2.5,-1.701 V 12.301 C 4.2,11 5.1,10.601 8.399,9.7 12.399,8.7 14.6,7.2 14.6,3.801 V 3.7 c 0,-3.899 -3,-6.099 -7.201,-6.099 C 4.8,-2.3 2.2,-1.5 0,0" /></g><g
           transform="translate(856.0996,113.9998)"
           id="g70"><path
             id="path72"
             style="fill:#004b87;fill-opacity:1;fill-rule:nonzero;stroke:none"
             d="m 0,0 v 0 c 0,5.7 4.4,10.2 10.5,10.2 6,0 10.4,-4.5 10.4,-10.099 V 0 C 20.9,-5.6 16.5,-10.1 10.4,-10.1 4.4,-10.1 0,-5.5 0,0 m 16.4,0 v 0 c 0,3.4 -2.5,6.2 -5.9,6.2 C 7,6.2 4.601,3.5 4.601,0.101 V 0 c 0,-3.399 2.5,-6.2 5.899,-6.2 3.4,0.1 5.9,2.9 5.9,6.2" /></g></g></g></g></g></svg>